<?xml version="1.0" encoding="UTF-8"?>
<svg width="154px" height="120px" viewBox="0 0 154 120" version="1.1" xmlns="http://www.w3.org/2000/svg" xmlns:xlink="http://www.w3.org/1999/xlink">
    <title>宋小步的店-订购记录空状态</title>
    <defs>
        <linearGradient x1="50%" y1="0%" x2="50%" y2="100%" id="linearGradient-1">
            <stop stop-color="#D1E8FF" offset="0%"></stop>
            <stop stop-color="#FFFFFF" offset="100%"></stop>
        </linearGradient>
        <linearGradient x1="50%" y1="100%" x2="50%" y2="3.061617e-15%" id="linearGradient-2">
            <stop stop-color="#B9DCFF" offset="0%"></stop>
            <stop stop-color="#DBEDFF" offset="100%"></stop>
        </linearGradient>
        <linearGradient x1="50%" y1="100%" x2="50%" y2="3.061617e-15%" id="linearGradient-3">
            <stop stop-color="#CCE6FF" offset="0%"></stop>
            <stop stop-color="#DBEDFF" offset="100%"></stop>
        </linearGradient>
        <linearGradient x1="50%" y1="100%" x2="50%" y2="3.061617e-15%" id="linearGradient-4">
            <stop stop-color="#CCE6FF" offset="0%"></stop>
            <stop stop-color="#DBEDFF" offset="100%"></stop>
        </linearGradient>
        <linearGradient x1="50%" y1="100%" x2="50%" y2="3.061617e-15%" id="linearGradient-5">
            <stop stop-color="#CCE6FF" offset="0%"></stop>
            <stop stop-color="#DBEDFF" offset="100%"></stop>
        </linearGradient>
        <ellipse id="path-6" cx="85.5946536" cy="46.6373196" rx="4.536" ry="4.86"></ellipse>
        <filter x="-44.1%" y="-20.6%" width="188.2%" height="182.3%" filterUnits="objectBoundingBox" id="filter-7">
            <feOffset dx="0" dy="2" in="SourceAlpha" result="shadowOffsetOuter1"></feOffset>
            <feGaussianBlur stdDeviation="1" in="shadowOffsetOuter1" result="shadowBlurOuter1"></feGaussianBlur>
            <feColorMatrix values="0 0 0 0 0   0 0 0 0 0   0 0 0 0 0  0 0 0 0.140980114 0" type="matrix" in="shadowBlurOuter1"></feColorMatrix>
        </filter>
    </defs>
    <g id="虎虎商品管家网页" stroke="none" stroke-width="1" fill="none" fill-rule="evenodd">
        <g id="宋小步的店-订购记录空状态" transform="translate(-668.000000, -296.000000)">
            <polygon id="矩形" fill="#FFFFFF" points="249 156 1240 156 1240 708 249 708"></polygon>
            <rect id="矩形备份" fill="#F9F9F9" x="0" y="0" width="1280" height="768"></rect>
            <polygon id="矩形" fill="#FFFFFF" points="249 156 1240 156 1240 708 249 708"></polygon>
            <g id="编组-10" transform="translate(668.000000, 296.000000)">
                <g id="编组" opacity="0.800000012">
                    <path d="M127.937912,86.1499158 C129.298509,86.1499158 139.429608,79.5497039 140.153296,77.5490329 C140.876985,75.5483618 140.052235,73.1053616 139.423846,71.9093196 C138.795456,70.7132776 134.92848,68.4686445 129.053567,71.3231554 C123.178654,74.1776663 120.521672,70.3948756 120.01046,68.1182677 C119.499247,65.8416598 122.438764,61.8538936 127.17578,60.1464377 C131.912796,58.4389818 141.232275,52.4549764 138.694819,46.9781929 C136.157364,41.5014093 130.374807,44.8301574 125.192633,45.5659151 C120.01046,46.3016728 110.815517,43.3404669 118.004075,36.0034214 C125.192633,28.6663759 137.446455,25.0882241 137.446455,19.9258036 C137.446455,14.7633831 132.280332,13.2800876 121.277288,17.2395813 C110.274244,21.199075 92.7807173,23.1334462 86.1247056,28.5209009 C79.4686939,33.9083555 55.661706,46.7343923 53.4904732,50.5678832 C49.3002023,54.0468683 42.728025,56.2082772 47.6441322,62.9247984 C52.5602395,69.6413196 52.7666132,60.3002422 59.6746536,65.3660188 C64.280014,68.7432032 62.8626933,71.9018402 55.4226916,74.8419297 C102.859107,82.3805871 127.030847,86.1499158 127.937912,86.1499158 Z" id="路径-65" fill="#EDF6FF"></path>
                    <path d="M76.5226536,69.6413196 C92.2539936,69.6413196 106.970381,73.9868471 119.536918,81.5430035 C121.17746,81.2062173 123.816808,80.3221032 124.811257,80.3221032 C126.040499,80.3221032 131.912796,83.775006 131.912796,86.7010909 L131.913119,90.6259768 C140.888627,98.572806 148.142774,108.42001 153.045292,119.53732 L8.07176548e-12,119.53732 C5.99868727,105.934273 15.518176,94.2327971 27.4038554,85.5875052 C27.7955978,81.7281413 27.9909203,79.5548335 27.9909203,79.0667085 C27.9909203,78.3029077 32.8548802,72.8353227 39.1854225,73.4813223 C41.9539157,74.5873582 43.9257137,75.3436138 45.1008164,75.750089 C54.8004427,71.8104446 65.4082351,69.6413196 76.5226536,69.6413196 Z" id="形状结合" fill="url(#linearGradient-1)"></path>
                    <ellipse id="椭圆形" fill="url(#linearGradient-2)" cx="59.6746536" cy="87.7853196" rx="13.284" ry="4.536"></ellipse>
                    <path d="M47.2678759,14.8853196 C56.6781707,8.96805597 61.5607204,6.00942415 61.915525,6.00942415 L45.9784702,12.6679901 L45.0654214,14.8853196 L47.2678759,14.8853196 Z" id="路径-63" fill="#EDF6FF"></path>
                    <polygon id="星形" fill="#1D8FFF" opacity="0.400000006" transform="translate(44.122654, 14.885320) rotate(-34.000000) translate(-44.122654, -14.885320) " points="44.1226536 17.4773196 41.0755749 19.0792637 41.6575152 15.6862917 39.1923767 13.2833755 42.5991143 12.7883476 44.1226536 9.70131961 45.646193 12.7883476 49.0529306 13.2833755 46.5877921 15.6862917 47.1697324 19.0792637"></polygon>
                    <ellipse id="椭圆形" fill="url(#linearGradient-3)" transform="translate(30.478776, 95.139731) rotate(34.000000) translate(-30.478776, -95.139731) " cx="30.4787759" cy="95.1397309" rx="5.184" ry="6.156"></ellipse>
                    <ellipse id="椭圆形复制-2" fill="url(#linearGradient-4)" transform="translate(112.584490, 91.163970) rotate(117.000000) translate(-112.584490, -91.163970) " cx="112.58449" cy="91.16397" rx="4.91115789" ry="5.832"></ellipse>
                    <ellipse id="椭圆形复制-3" fill="url(#linearGradient-5)" transform="translate(123.399820, 99.611215) rotate(117.000000) translate(-123.399820, -99.611215) " cx="123.39982" cy="99.6112155" rx="3.00126316" ry="3.564"></ellipse>
                    <ellipse id="椭圆形" fill="#D1E8FF" transform="translate(34.571239, 77.549033) rotate(-25.000000) translate(-34.571239, -77.549033) " cx="34.5712385" cy="77.5490329" rx="5.508" ry="1.62"></ellipse>
                    <ellipse id="椭圆形复制" fill="#D1E8FF" transform="translate(127.175780, 84.430707) rotate(41.000000) translate(-127.175780, -84.430707) " cx="127.17578" cy="84.4307066" rx="3.888" ry="1.62"></ellipse>
                    <path d="M68.2851667,54.4133196 C64.136834,49.8407061 61.6186536,43.8279165 61.6186536,37.2413196 C61.6186536,22.9260989 73.5135524,11.3213196 88.1866536,11.3213196 C102.859755,11.3213196 114.754654,22.9260989 114.754654,37.2413196 C114.754654,43.8279165 112.236473,49.8407061 108.088141,54.4133196 L68.2851667,54.4133196 L68.2851667,54.4133196 Z" id="路径" fill="#D5EAFF"></path>
                    <path d="M87.8626536,23.6333196 C92.7835108,23.6333196 97.2385108,25.6278911 100.463296,28.8526768 C103.688082,32.0774625 105.682654,36.5324625 105.682654,41.4533196 L105.682654,41.4533196 L105.682654,72.8813196 C105.682654,76.2811845 104.304586,79.3591845 102.076552,81.5872183 C99.8485186,83.8152521 96.7705186,85.1933196 93.3706536,85.1933196 L93.3706536,85.1933196 L82.3546536,85.1933196 C78.9547887,85.1933196 75.8767887,83.8152521 73.648755,81.5872183 C71.4207212,79.3591845 70.0426536,76.2811845 70.0426536,72.8813196 L70.0426536,72.8813196 L70.0426536,41.4533196 C70.0426536,36.5324625 72.0372251,32.0774625 75.2620108,28.8526768 C78.4867965,25.6278911 82.9417965,23.6333196 87.8626536,23.6333196 Z" id="矩形" stroke="#B9DDFF" stroke-width="1.296" fill="#FFFFFF"></path>
                    <circle id="椭圆形" fill="#A1D0FF" cx="80.0866536" cy="37.5653196" r="1.944"></circle>
                    <circle id="椭圆形复制-6" fill="#A1D0FF" cx="91.4266536" cy="37.5653196" r="1.944"></circle>
                    <g id="椭圆形">
                        <use fill="black" fill-opacity="1" filter="url(#filter-7)" xlink:href="#path-6"></use>
                        <use fill="#FFFFFF" fill-rule="evenodd" xlink:href="#path-6"></use>
                    </g>
                    <ellipse id="椭圆形复制-7" fill="#D5EAFF" cx="85.5946536" cy="46.6373196" rx="2.1168" ry="2.268"></ellipse>
                    <path d="M86.9194386,3.68345354e-14 C86.4667432,3.68345354e-14 84.9975373,1.70592619 82.5118207,5.11777858 L85.6020212,6.00942415 L83.326734,10.4473719 L89.7375905,5.11777858 L86.1247056,3.44851578 C87.107223,1.14950526 87.372134,3.68345354e-14 86.9194386,3.68345354e-14 Z" id="路径-64" fill="#1D8FFF" opacity="0.400000006"></path>
                    <circle id="椭圆形" fill="#EDF6FF" cx="44.7706536" cy="68.3453196" r="3.888"></circle>
                    <circle id="椭圆形复制-4" fill="#EDF6FF" cx="142.942654" cy="32.3813196" r="6.156"></circle>
                    <circle id="椭圆形复制-5" fill="#EDF6FF" cx="141.646654" cy="63.8093196" r="4.212"></circle>
                    <path d="M70.5221991,53.8375576 C81.9740536,57.6610945 93.6380536,57.6610945 105.514199,53.8375576" id="路径-66" stroke="#7DBFFF" stroke-width="3.888" stroke-linecap="round"></path>
                    <path d="M96.6925873,67.7439964 C86.7439288,63.9189643 74.3130664,61.4376322 59.4,60.3" id="路径-67" stroke="#7DBFFF" stroke-width="1.62" stroke-linecap="round" stroke-linejoin="round"></path>
                    <path d="M58.9427302,60.0900563 C58.4348762,61.7723228 57.2277465,68.2592511 58.4512001,71.316351 C59.6746536,74.3734509 60.9170128,86.8381788 58.9427302,89.5797492" id="路径-68" stroke="#7DBFFF" stroke-width="0.972"></path>
                    <path d="M76.6266778,20.5781466 C72.1256053,24.7395399 69.3359241,28.4372354 68.2576344,31.6712331 C68.1384013,32.0288359 68.0255386,32.3927061 67.9190461,32.7628436 M67.1878486,36.7039107 C66.9427692,37.9835238 66.8486794,38.1011787 66.7342392,39.5093196" id="形状" stroke="#FFFFFF" stroke-width="2.592" stroke-linecap="round" stroke-linejoin="round"></path>
                </g>
                <rect id="矩形" fill="#D8D8D8" opacity="0" x="0" y="0" width="154" height="120"></rect>
            </g>
        </g>
    </g>
</svg>