<?xml version="1.0" encoding="UTF-8"?>
<svg width="12px" height="12px" viewBox="0 0 12 12" version="1.1" xmlns="http://www.w3.org/2000/svg" xmlns:xlink="http://www.w3.org/1999/xlink">
    <title> 备份 3</title>
    <g id="虎虎优化大师网页1" stroke="none" stroke-width="1" fill="none" fill-rule="evenodd">
        <g id="定时上下架1" transform="translate(-294.000000, -187.000000)">
            <polygon id="矩形" fill="#FFFFFF" points="249 156 1240 156 1240 708 249 708"></polygon>
            <rect id="矩形备份" fill="#F9F9F9" x="0" y="0" width="1280" height="768"></rect>
            <polygon id="矩形" fill="#FFFFFF" points="249 156 1240 156 1240 708 249 708"></polygon>
            <g id="编组-31" transform="translate(279.000000, 176.000000)">
                <rect id="矩形" stroke-opacity="0.2" stroke="#FA6400" fill="#FFF6ED" x="0.5" y="0.5" width="930" height="33" rx="4"></rect>
                <g id="编组-10" transform="translate(16.000000, 9.000000)" fill="#FA6400" fill-rule="nonzero">
                    <g id="小铃铛16_16" transform="translate(0.000000, 3.000000)">
                        <path d="M6.777,9.2421 C6.6555,10.1214 5.877,10.8 4.9347,10.8 C4.0419,10.8 3.2967,10.1907 3.1167,9.3789 L3.0924,9.2421 L6.777,9.2421 Z M5.013,0 C5.4837,0 5.8644,0.3807 5.8644,0.8505 L5.8644,0.9315 C7.25102454,1.20865329 8.29703798,2.35416557 8.4474,3.7602 L8.6652,5.7942 C8.7246,6.3513 8.9568,6.8751 9.3285,7.2936 L9.6669,7.6743 C9.8172,7.8435 9.9,8.0622 9.9,8.289 C9.9,8.48285195 9.74285195,8.64 9.549,8.64 L0.3285,8.64 C0.14707446,8.64 0,8.49292554 0,8.3115 C0,8.1009 0.0774,7.8966 0.2169,7.7382 L0.5841,7.3233 C0.96399091,6.89325437 1.20081607,6.35575877 1.2618,5.7852 L1.4778,3.7665 C1.62599532,2.38048441 2.6436104,1.24436501 4.005,0.945 L4.005,0.8505 C4.005,0.3807 4.3857,0 4.8555,0 L5.0139,0 L5.013,0 Z" id="形状"></path>
                    </g>
                </g>
            </g>
        </g>
    </g>
</svg>