<?xml version="1.0" standalone="no"?><!DOCTYPE svg PUBLIC "-//W3C//DTD SVG 1.1//EN" "http://www.w3.org/Graphics/SVG/1.1/DTD/svg11.dtd"><svg t="1608027914358" class="icon" viewBox="0 0 2409 1024" version="1.1" xmlns="http://www.w3.org/2000/svg" p-id="3264" xmlns:xlink="http://www.w3.org/1999/xlink" width="470.5078125" height="200"><defs><style type="text/css"></style></defs><path d="M0 0h1927.529412a481.882353 481.882353 0 0 1 481.882353 481.882353v542.117647H481.882353a481.882353 481.882353 0 0 1-481.882353-481.882353V0z" fill="#1F0F23" p-id="3265"></path><path d="M1927.529412 0a481.882353 481.882353 0 0 1 481.882353 481.882353v542.117647H481.882353a481.882353 481.882353 0 0 1-481.882353-481.882353V0h1927.529412zM48.188235 48.188235V542.117647a433.694118 433.694118 0 0 0 419.117177 433.453177L481.882353 975.811765h1879.341176V481.882353A433.694118 433.694118 0 0 0 1942.106353 48.429176L1927.529412 48.188235H48.188235z" fill="#FFFFFF" p-id="3266"></path><path d="M412.611765 718.607059c39.152941 0 59.030588-20.48 59.030588-60.235294V490.917647c24.696471-9.637647 49.392941-20.48 73.487059-31.924706v-56.621176c-24.094118 12.047059-48.188235 23.491765-73.487059 34.334117V329.487059h74.089412v-54.814118H471.642353V171.068235h-57.223529v103.604706H329.487059v54.814118h84.931765V457.788235c-30.72 9.637647-62.042353 18.070588-93.967059 25.298824l14.45647 54.814117c26.503529-7.830588 53.007059-16.263529 79.510589-25.298823v131.312941c0 14.456471-7.228235 22.287059-21.684706 22.287059-16.865882 0-33.731765-1.204706-51.802353-3.011765l12.649411 55.416471h59.030589z m401.167059 4.21647V559.585882l66.861176-10.24-9.035294-56.018823-57.825882 9.035294v-331.294118h-57.22353v339.727059l-222.268235 33.731765 8.432941 55.41647 213.835294-31.924705V722.823529h57.22353z m-119.868236-385.505882l39.152941-39.152941c-31.322353-31.322353-70.475294-63.247059-116.85647-95.171765L577.054118 240.941176c49.995294 34.334118 89.148235 66.258824 116.85647 96.376471z m-20.48 143.36l40.96-40.96c-31.924706-33.129412-71.077647-66.258824-116.85647-99.388235l-39.152942 38.550588c49.392941 36.141176 87.943529 69.872941 115.049412 101.797647z m798.72-68.668235v-53.007059h-152.395294c13.251765-26.503529 24.094118-54.211765 31.924706-83.124706h92.762353V222.870588h-208.414118c-7.830588-22.287059-15.661176-42.164706-24.094117-60.235294l-61.44 9.637647c9.637647 15.661176 18.070588 32.527059 26.503529 50.597647h-211.425882v53.007059h92.762353c9.637647 25.298824 19.275294 53.007059 28.310588 83.124706h-149.38353v53.007059h534.889412z m-208.414117-53.007059h-121.072942c-7.830588-30.117647-16.263529-57.825882-24.69647-83.124706h177.091765c-7.228235 28.912941-18.070588 56.621176-31.322353 83.124706z m-193.957647 365.628235v-24.094117h272.263529v24.094117h57.223529V449.957647h-386.710588v274.672941h57.22353z m272.263529-172.875294h-272.263529V499.952941h272.263529v51.802353z m0 99.388235h-272.263529v-50.597647h272.263529v50.597647z m497.543529 75.294118c43.369412-23.491765 80.715294-53.007059 112.037647-87.943529 28.912941 36.141176 64.451765 65.656471 107.218824 87.341176l28.310588-49.995294c-39.152941-19.877647-72.282353-48.188235-99.990588-84.329412 36.141176-55.416471 60.235294-123.482353 73.487059-202.992941v-48.790588h-219.858824V259.614118c85.534118-3.614118 162.635294-15.661176 232.508236-36.141177l-27.708236-51.2c-75.896471 24.094118-161.430588 36.743529-257.204706 38.550588v233.712942c-2.409412 99.990588-18.070588 178.898824-48.188235 235.52l39.152941 41.562353c38.550588-68.668235 59.030588-161.430588 61.44-277.082353v-50.597647h13.854118c12.047059 77.101176 33.129412 142.155294 63.849412 195.764705-28.912941 33.731765-63.849412 62.644706-106.014118 86.136471l27.105882 50.597647z m-102.4-4.216471V457.788235h-115.651764c0.602353-15.661176 1.204706-31.924706 1.204706-48.790588v-22.889412h135.529411v-56.018823h-28.912941V175.284706h-56.018823v154.804706h-50.597647V187.331765h-56.018824v221.665882c-0.602353 122.88-13.854118 212.028235-39.152941 268.649412l43.369412 37.345882c24.094118-46.983529 40.357647-114.447059 47.585882-202.390588h62.644706v209.618823h56.018823z m216.847059-183.115294c-21.684706-40.96-37.345882-89.750588-48.188235-145.167058h99.990588c-9.637647 54.211765-27.105882 102.4-51.802353 145.167058z" fill="#5FFADF" p-id="3267"></path><path d="M412.611765 839.077647c39.152941 0 59.030588-20.48 59.030588-60.235294v-167.454118c24.696471-9.637647 49.392941-20.48 73.487059-31.924706v-56.621176c-24.094118 12.047059-48.188235 23.491765-73.487059 34.334118V449.957647h74.089412v-54.814118H471.642353V291.538824h-57.223529v103.604705H329.487059v54.814118h84.931765V578.258824c-30.72 9.637647-62.042353 18.070588-93.967059 25.298823l14.45647 54.814118c26.503529-7.830588 53.007059-16.263529 79.510589-25.298824v131.312941c0 14.456471-7.228235 22.287059-21.684706 22.287059-16.865882 0-33.731765-1.204706-51.802353-3.011765l12.649411 55.416471h59.030589z m401.167059 4.216471v-163.237647l66.861176-10.24-9.035294-56.018824-57.825882 9.035294v-331.294117h-57.22353v339.727058l-222.268235 33.731765 8.432941 55.416471 213.835294-31.924706V843.294118h57.22353z m-119.868236-385.505883l39.152941-39.152941c-31.322353-31.322353-70.475294-63.247059-116.85647-95.171765L577.054118 361.411765c49.995294 34.334118 89.148235 66.258824 116.85647 96.37647z m-20.48 143.36l40.96-40.96c-31.924706-33.129412-71.077647-66.258824-116.85647-99.388235l-39.152942 38.550588c49.392941 36.141176 87.943529 69.872941 115.049412 101.797647z m798.72-68.668235v-53.007059h-152.395294c13.251765-26.503529 24.094118-54.211765 31.924706-83.124706h92.762353V343.341176h-208.414118c-7.830588-22.287059-15.661176-42.164706-24.094117-60.235294l-61.44 9.637647c9.637647 15.661176 18.070588 32.527059 26.503529 50.597647h-211.425882v53.007059h92.762353c9.637647 25.298824 19.275294 53.007059 28.310588 83.124706h-149.38353v53.007059h534.889412z m-208.414117-53.007059h-121.072942c-7.830588-30.117647-16.263529-57.825882-24.69647-83.124706h177.091765c-7.228235 28.912941-18.070588 56.621176-31.322353 83.124706z m-193.957647 365.628235v-24.094117h272.263529v24.094117h57.223529V570.428235h-386.710588v274.672941h57.22353z m272.263529-172.875294h-272.263529v-51.802353h272.263529v51.802353z m0 99.388236h-272.263529v-50.597647h272.263529v50.597647z m497.543529 75.294117c43.369412-23.491765 80.715294-53.007059 112.037647-87.943529 28.912941 36.141176 64.451765 65.656471 107.218824 87.341176l28.310588-49.995294c-39.152941-19.877647-72.282353-48.188235-99.990588-84.329412 36.141176-55.416471 60.235294-123.482353 73.487059-202.992941v-48.790588h-219.858824V380.084706c85.534118-3.614118 162.635294-15.661176 232.508236-36.141177l-27.708236-51.2c-75.896471 24.094118-161.430588 36.743529-257.204706 38.550589v233.712941c-2.409412 99.990588-18.070588 178.898824-48.188235 235.52l39.152941 41.562353c38.550588-68.668235 59.030588-161.430588 61.44-277.082353v-50.597647h13.854118c12.047059 77.101176 33.129412 142.155294 63.849412 195.764706-28.912941 33.731765-63.849412 62.644706-106.014118 86.13647l27.105882 50.597647z m-102.4-4.21647V578.258824h-115.651764c0.602353-15.661176 1.204706-31.924706 1.204706-48.790589v-22.889411h135.529411v-56.018824h-28.912941V295.755294h-56.018823v154.804706h-50.597647V307.802353h-56.018824v221.665882c-0.602353 122.88-13.854118 212.028235-39.152941 268.649412l43.369412 37.345882c24.094118-46.983529 40.357647-114.447059 47.585882-202.390588h62.644706v209.618824h56.018823z m216.847059-183.115294c-21.684706-40.96-37.345882-89.750588-48.188235-145.167059h99.990588c-9.637647 54.211765-27.105882 102.4-51.802353 145.167059z" fill="#F22968" p-id="3268"></path><path d="M412.611765 778.842353c39.152941 0 59.030588-20.48 59.030588-60.235294V551.152941c24.696471-9.637647 49.392941-20.48 73.487059-31.924706v-56.621176c-24.094118 12.047059-48.188235 23.491765-73.487059 34.334117V389.722353h74.089412v-54.814118H471.642353V231.303529h-57.223529v103.604706H329.487059v54.814118h84.931765V518.023529c-30.72 9.637647-62.042353 18.070588-93.967059 25.298824l14.45647 54.814118c26.503529-7.830588 53.007059-16.263529 79.510589-25.298824v131.312941c0 14.456471-7.228235 22.287059-21.684706 22.287059-16.865882 0-33.731765-1.204706-51.802353-3.011765l12.649411 55.416471h59.030589z m401.167059 4.216471v-163.237648l66.861176-10.24-9.035294-56.018823-57.825882 9.035294v-331.294118h-57.22353v339.727059l-222.268235 33.731765 8.432941 55.416471 213.835294-31.924706V783.058824h57.22353z m-119.868236-385.505883l39.152941-39.152941c-31.322353-31.322353-70.475294-63.247059-116.85647-95.171765L577.054118 301.176471c49.995294 34.334118 89.148235 66.258824 116.85647 96.37647z m-20.48 143.36l40.96-40.96c-31.924706-33.129412-71.077647-66.258824-116.85647-99.388235l-39.152942 38.550588c49.392941 36.141176 87.943529 69.872941 115.049412 101.797647z m798.72-68.668235v-53.007059h-152.395294c13.251765-26.503529 24.094118-54.211765 31.924706-83.124706h92.762353V283.105882h-208.414118c-7.830588-22.287059-15.661176-42.164706-24.094117-60.235294l-61.44 9.637647c9.637647 15.661176 18.070588 32.527059 26.503529 50.597647h-211.425882v53.007059h92.762353c9.637647 25.298824 19.275294 53.007059 28.310588 83.124706h-149.38353v53.007059h534.889412z m-208.414117-53.007059h-121.072942c-7.830588-30.117647-16.263529-57.825882-24.69647-83.124706h177.091765c-7.228235 28.912941-18.070588 56.621176-31.322353 83.124706z m-193.957647 365.628235v-24.094117h272.263529v24.094117h57.223529V510.192941h-386.710588v274.672941h57.22353z m272.263529-172.875294h-272.263529V560.188235h272.263529v51.802353z m0 99.388236h-272.263529v-50.597648h272.263529v50.597648z m497.543529 75.294117c43.369412-23.491765 80.715294-53.007059 112.037647-87.943529 28.912941 36.141176 64.451765 65.656471 107.218824 87.341176l28.310588-49.995294c-39.152941-19.877647-72.282353-48.188235-99.990588-84.329412 36.141176-55.416471 60.235294-123.482353 73.487059-202.992941v-48.790588h-219.858824V319.849412c85.534118-3.614118 162.635294-15.661176 232.508236-36.141177l-27.708236-51.2c-75.896471 24.094118-161.430588 36.743529-257.204706 38.550589v233.712941c-2.409412 99.990588-18.070588 178.898824-48.188235 235.52l39.152941 41.562353c38.550588-68.668235 59.030588-161.430588 61.44-277.082353v-50.597647h13.854118c12.047059 77.101176 33.129412 142.155294 63.849412 195.764706-28.912941 33.731765-63.849412 62.644706-106.014118 86.13647l27.105882 50.597647z m-102.4-4.21647V518.023529h-115.651764c0.602353-15.661176 1.204706-31.924706 1.204706-48.790588v-22.889412h135.529411v-56.018823h-28.912941V235.52h-56.018823v154.804706h-50.597647V247.567059h-56.018824v221.665882c-0.602353 122.88-13.854118 212.028235-39.152941 268.649412l43.369412 37.345882c24.094118-46.983529 40.357647-114.447059 47.585882-202.390588h62.644706v209.618824h56.018823z m216.847059-183.115295c-21.684706-40.96-37.345882-89.750588-48.188235-145.167058h99.990588c-9.637647 54.211765-27.105882 102.4-51.802353 145.167058z" fill="#FFFFFF" p-id="3269"></path></svg>