<?xml version="1.0" encoding="UTF-8"?>
<svg width="16px" height="16px" viewBox="0 0 16 16" version="1.1" xmlns="http://www.w3.org/2000/svg" xmlns:xlink="http://www.w3.org/1999/xlink">
    <title>画板备份 6</title>
    <defs>
        <rect id="path-1" x="0" y="0" width="16" height="16"></rect>
        <rect id="path-3" x="0" y="0" width="16" height="16"></rect>
    </defs>
    <g id="ICON-" stroke="none" stroke-width="1" fill="none" fill-rule="evenodd">
        <g id="10-9之前切图" transform="translate(-33.000000, -54.000000)">
            <g id="复制商品" transform="translate(33.000000, 54.000000)">
                <g id="编组-28">
                    <mask id="mask-2" fill="white">
                        <use xlink:href="#path-1"></use>
                    </mask>
                    <use id="蒙版" fill="#D8D8D8" opacity="0" xlink:href="#path-1"></use>
                    <g mask="url(#mask-2)">
                        <g transform="translate(1.500000, 2.000000)">
                            <path d="M2.73427734,9.9 L2.73427734,9.9 L1.8,9.9 C0.80588745,9.9 0,9.09411255 0,8.1 L0,1.8 C0,0.80588745 0.80588745,0 1.8,0 L8.1,0 C9.09411255,0 9.9,0.80588745 9.9,1.8 L9.9,2.76229248 L9.9,2.76229248" id="路径" stroke="#666666" stroke-width="0.9"></path>
                            <rect id="矩形备份-7" stroke="#666666" stroke-width="0.9" x="2.7" y="2.7" width="9.9" height="9.9" rx="1.8"></rect>
                            <g id="编组-27" stroke="none" stroke-width="1" fill-rule="evenodd" transform="translate(4.950000, 4.500000)">
                                <rect id="矩形" fill="#666666" x="0" y="2.7" width="5.4" height="1" rx="0.45"></rect>
                                <rect id="矩形备份-8" fill="#666666" transform="translate(2.700000, 3.150000) rotate(-90.000000) translate(-2.700000, -3.150000) " x="0" y="2.7" width="5.4" height="1" rx="0.45"></rect>
                            </g>
                        </g>
                    </g>
                </g>
                <mask id="mask-4" fill="white">
                    <use xlink:href="#path-3"></use>
                </mask>
                <use id="蒙版备份" fill="#D8D8D8" opacity="0" xlink:href="#path-3"></use>
            </g>
        </g>
    </g>
</svg>