<?xml version="1.0" encoding="UTF-8"?>
<svg width="16px" height="16px" viewBox="0 0 16 16" version="1.1" xmlns="http://www.w3.org/2000/svg" xmlns:xlink="http://www.w3.org/1999/xlink">
    <title>画板备份 7</title>
    <defs>
        <rect id="path-1" x="0" y="0.5" width="16" height="16"></rect>
        <rect id="path-3" x="0" y="0.5" width="16" height="16"></rect>
    </defs>
    <g id="ICON-" stroke="none" stroke-width="1" fill="none" fill-rule="evenodd">
        <g id="10-9之前切图" transform="translate(-51.000000, -54.000000)">
            <g id="商品管理" transform="translate(51.000000, 53.000000)">
                <g id="编组-29">
                    <mask id="mask-2" fill="white">
                        <use xlink:href="#path-1"></use>
                    </mask>
                    <use id="蒙版" fill="#D8D8D8" opacity="0" xlink:href="#path-1"></use>
                    <g mask="url(#mask-2)" stroke="#666666" stroke-width="0.9">
                        <g transform="translate(0.500000, -2.000000)">
                            <path d="M5.44367758,4.96219836 L11.1843594,2.54688974 C11.4134377,2.45050837 11.6772749,2.55808048 11.7736563,2.78715878 C11.8216879,2.90131979 11.8205438,3.03023032 11.7704936,3.14352086 L9.26811736,8.80774475 C9.17706553,9.01384404 9.01201955,9.17829393 8.80559217,9.26859946 L3.18636644,11.7268353 C2.95867296,11.8264441 2.69334204,11.7226109 2.59373324,11.4949174 C2.54455534,11.3825028 2.54341389,11.2548814 2.59057321,11.1416051 L4.96183427,5.44585506 C5.05269423,5.22761019 5.22577554,5.05387748 5.44367758,4.96219836 Z" id="矩形" transform="translate(7.194039, 7.141799) rotate(-315.000000) translate(-7.194039, -7.141799) "></path>
                            <path d="M11.4932284,5.426531 L9.01959517,11.0256941 C8.90584573,11.2831702 8.69416028,11.4941187 8.43636069,11.6068979 L2.88202502,14.0367464" id="路径" stroke-linecap="round" transform="translate(7.187627, 9.731639) rotate(-315.000000) translate(-7.187627, -9.731639) "></path>
                            <path d="M11.4932284,7.98221083 L9.01959517,13.5813739 C8.90584573,13.8388501 8.69416028,14.0497985 8.43636069,14.1625778 L2.88202502,16.5924262" id="路径备份-34" stroke-linecap="round" transform="translate(7.187627, 12.287319) rotate(-315.000000) translate(-7.187627, -12.287319) "></path>
                            <path d="M11.4932284,10.6822108 L9.01959517,16.2813739 C8.90584573,16.5388501 8.69416028,16.7497985 8.43636069,16.8625778 L2.88202502,19.2924262" id="路径备份-35" stroke-linecap="round" transform="translate(7.187627, 14.987319) rotate(-315.000000) translate(-7.187627, -14.987319) "></path>
                        </g>
                    </g>
                </g>
                <mask id="mask-4" fill="white">
                    <use xlink:href="#path-3"></use>
                </mask>
                <use id="蒙版备份" fill="#D8D8D8" opacity="0" xlink:href="#path-3"></use>
            </g>
        </g>
    </g>
</svg>